<svg width="546" height="241" viewBox="0 0 546 241" fill="none" xmlns="http://www.w3.org/2000/svg">
<path d="M247.25 10.0315C246.1 8.62734 244.679 7.92525 242.987 7.92525C242.243 7.92525 241.549 8.0606 240.906 8.33128C240.28 8.60196 239.739 8.97415 239.282 9.44784C238.825 9.90462 238.462 10.4544 238.191 11.0973C237.937 11.7402 237.81 12.4338 237.81 13.1782C237.81 13.9395 237.937 14.6416 238.191 15.2844C238.462 15.9273 238.825 16.4856 239.282 16.9593C239.756 17.433 240.306 17.8052 240.932 18.0759C241.558 18.3465 242.234 18.4819 242.962 18.4819C244.552 18.4819 245.982 17.8052 247.25 16.4518V22.3391L246.743 22.5167C245.982 22.7874 245.271 22.982 244.611 23.1004C243.952 23.2357 243.3 23.3034 242.657 23.3034C241.338 23.3034 240.069 23.0581 238.851 22.5675C237.65 22.06 236.584 21.3579 235.653 20.4612C234.74 19.5477 234.004 18.4734 233.446 17.2384C232.887 15.9865 232.608 14.6247 232.608 13.1528C232.608 11.681 232.879 10.336 233.42 9.11795C233.979 7.88296 234.715 6.82561 235.628 5.94589C236.559 5.04925 237.633 4.35563 238.851 3.86501C240.069 3.35748 241.346 3.10372 242.683 3.10372C243.444 3.10372 244.188 3.18831 244.916 3.35748C245.66 3.50974 246.438 3.75505 247.25 4.0934V10.0315ZM255.009 13.2036C255.009 13.9649 255.153 14.6669 255.44 15.3098C255.728 15.9527 256.117 16.511 256.608 16.9847C257.098 17.4584 257.665 17.8305 258.308 18.1012C258.968 18.355 259.661 18.4819 260.389 18.4819C261.116 18.4819 261.801 18.355 262.444 18.1012C263.104 17.8305 263.679 17.4584 264.17 16.9847C264.677 16.511 265.075 15.9527 265.363 15.3098C265.65 14.6669 265.794 13.9649 265.794 13.2036C265.794 12.4423 265.65 11.7402 265.363 11.0973C265.075 10.4544 264.677 9.89616 264.17 9.42247C263.679 8.94877 263.104 8.58504 262.444 8.33128C261.801 8.0606 261.116 7.92525 260.389 7.92525C259.661 7.92525 258.968 8.0606 258.308 8.33128C257.665 8.58504 257.098 8.94877 256.608 9.42247C256.117 9.89616 255.728 10.4544 255.44 11.0973C255.153 11.7402 255.009 12.4423 255.009 13.2036ZM249.807 13.2036C249.807 11.7825 250.069 10.4629 250.593 9.24483C251.118 8.00984 251.845 6.93557 252.776 6.02202C253.706 5.10846 254.814 4.39792 256.1 3.89039C257.403 3.36594 258.832 3.10372 260.389 3.10372C261.928 3.10372 263.349 3.36594 264.652 3.89039C265.955 4.39792 267.071 5.10846 268.002 6.02202C268.949 6.93557 269.685 8.00984 270.209 9.24483C270.734 10.4629 270.996 11.7825 270.996 13.2036C270.996 14.6247 270.734 15.9527 270.209 17.1877C269.685 18.4057 268.949 19.4716 268.002 20.3851C267.071 21.2987 265.955 22.0177 264.652 22.5421C263.349 23.0496 261.928 23.3034 260.389 23.3034C258.832 23.3034 257.403 23.0496 256.1 22.5421C254.814 22.0177 253.706 21.2987 252.776 20.3851C251.845 19.4716 251.118 18.4057 250.593 17.1877C250.069 15.9527 249.807 14.6247 249.807 13.2036ZM276.646 3.63663L281.265 15.2844L285.909 3.63663H291.314L283.244 22.7705H279.285L271.241 3.63663H276.646ZM298.293 3.63663V22.7705H293.319V3.63663H298.293ZM307.264 18.558H308.406C309.268 18.558 310.038 18.4227 310.715 18.152C311.392 17.8813 311.958 17.5091 312.415 17.0354C312.889 16.5617 313.244 16.0034 313.481 15.3606C313.735 14.7008 313.862 13.9818 313.862 13.2036C313.862 12.4423 313.735 11.7317 313.481 11.0719C313.227 10.4122 312.863 9.84541 312.39 9.37172C311.933 8.89802 311.366 8.52583 310.69 8.25515C310.013 7.98447 309.252 7.84913 308.406 7.84913H307.264V18.558ZM302.29 3.63663H309.649C310.952 3.63663 312.17 3.89885 313.303 4.4233C314.454 4.94775 315.452 5.64983 316.298 6.52955C317.161 7.39235 317.837 8.40741 318.328 9.57473C318.818 10.7251 319.064 11.9347 319.064 13.2036C319.064 14.4555 318.818 15.6651 318.328 16.8324C317.854 17.9828 317.186 18.9979 316.323 19.8776C315.477 20.7573 314.479 21.4594 313.329 21.9838C312.195 22.5083 310.969 22.7705 309.649 22.7705H302.29V3.63663ZM320.234 14.0664H327.518V17.8982H320.234V14.0664ZM334.245 7.84913H331.454V3.63663H339.219V22.7705H334.245V7.84913ZM346.959 22.7705L352.389 16.5279H352.288C351.814 16.8155 351.425 16.9931 351.12 17.0608C350.816 17.1115 350.545 17.1369 350.308 17.1369C349.378 17.1369 348.515 16.9593 347.72 16.604C346.942 16.2487 346.265 15.7666 345.69 15.1576C345.132 14.5316 344.692 13.8041 344.37 12.9752C344.049 12.1462 343.888 11.258 343.888 10.3106C343.888 9.29559 344.074 8.35666 344.446 7.49385C344.819 6.61414 345.352 5.85284 346.045 5.20997C346.756 4.55018 347.61 4.03419 348.608 3.662C349.606 3.28981 350.731 3.10372 351.983 3.10372C353.252 3.10372 354.386 3.28981 355.384 3.662C356.382 4.03419 357.228 4.54172 357.921 5.18459C358.632 5.82746 359.173 6.5803 359.545 7.4431C359.918 8.28899 360.104 9.19408 360.104 10.1584C360.104 11.2411 359.858 12.4169 359.368 13.6857C358.894 14.9376 358.158 16.1726 357.16 17.3907L352.719 22.7705H346.959ZM355.181 10.2091C355.181 9.76928 355.096 9.36326 354.927 8.99107C354.758 8.60196 354.529 8.26361 354.242 7.97601C353.954 7.68841 353.616 7.46002 353.227 7.29084C352.855 7.12167 352.449 7.03708 352.009 7.03708C351.569 7.03708 351.154 7.12167 350.765 7.29084C350.393 7.46002 350.063 7.68841 349.776 7.97601C349.488 8.26361 349.26 8.60196 349.09 8.99107C348.921 9.36326 348.837 9.76928 348.837 10.2091C348.837 10.649 348.921 11.0635 349.09 11.4526C349.26 11.8248 349.488 12.1547 349.776 12.4423C350.063 12.7299 350.393 12.9583 350.765 13.1274C351.154 13.2966 351.569 13.3812 352.009 13.3812C352.449 13.3812 352.855 13.2966 353.227 13.1274C353.616 12.9583 353.954 12.7299 354.242 12.4423C354.529 12.1547 354.758 11.8248 354.927 11.4526C355.096 11.0635 355.181 10.649 355.181 10.2091Z" fill="#444444"/>
<path d="M240.428 43.1794H249.105V34.2564H255.115V57.3765H249.105V47.8402H240.428V57.3765H234.418V34.2564H240.428V43.1794ZM265.541 46.2764L257.109 34.2564H264.284L268.577 40.573L272.839 34.2564H280.014L271.551 46.2764V57.3765H265.541V46.2764ZM285.716 45.8164C285.716 46.7363 285.889 47.5847 286.237 48.3615C286.585 49.1383 287.055 49.8129 287.648 50.3852C288.24 50.9576 288.925 51.4073 289.702 51.7344C290.499 52.0411 291.337 52.1944 292.216 52.1944C293.095 52.1944 293.923 52.0411 294.7 51.7344C295.497 51.4073 296.192 50.9576 296.785 50.3852C297.398 49.8129 297.879 49.1383 298.226 48.3615C298.574 47.5847 298.748 46.7363 298.748 45.8164C298.748 44.8965 298.574 44.0482 298.226 43.2714C297.879 42.4946 297.398 41.82 296.785 41.2476C296.192 40.6752 295.497 40.2357 294.7 39.9291C293.923 39.602 293.095 39.4385 292.216 39.4385C291.337 39.4385 290.499 39.602 289.702 39.9291C288.925 40.2357 288.24 40.6752 287.648 41.2476C287.055 41.82 286.585 42.4946 286.237 43.2714C285.889 44.0482 285.716 44.8965 285.716 45.8164ZM279.43 45.8164C279.43 44.0993 279.747 42.5048 280.38 41.0329C281.014 39.5407 281.893 38.2426 283.017 37.1387C284.142 36.0348 285.481 35.1763 287.034 34.563C288.608 33.9293 290.336 33.6124 292.216 33.6124C294.077 33.6124 295.794 33.9293 297.368 34.563C298.942 35.1763 300.291 36.0348 301.415 37.1387C302.56 38.2426 303.449 39.5407 304.083 41.0329C304.717 42.5048 305.034 44.0993 305.034 45.8164C305.034 47.5336 304.717 49.1383 304.083 50.6305C303.449 52.1024 302.56 53.3902 301.415 54.4941C300.291 55.598 298.942 56.4668 297.368 57.1005C295.794 57.7138 294.077 58.0204 292.216 58.0204C290.336 58.0204 288.608 57.7138 287.034 57.1005C285.481 56.4668 284.142 55.598 283.017 54.4941C281.893 53.3902 281.014 52.1024 280.38 50.6305C279.747 49.1383 279.43 47.5336 279.43 45.8164ZM320.083 44.4366H332.011C332.011 45.6631 331.96 46.7772 331.858 47.7789C331.756 48.7805 331.551 49.7106 331.245 50.5692C330.815 51.7753 330.233 52.8485 329.497 53.7889C328.761 54.7088 327.892 55.4856 326.891 56.1193C325.909 56.7325 324.826 57.2027 323.64 57.5298C322.455 57.8569 321.208 58.0204 319.899 58.0204C318.1 58.0204 316.455 57.724 314.962 57.1312C313.491 56.5383 312.223 55.7104 311.16 54.6474C310.097 53.564 309.269 52.2761 308.677 50.7839C308.084 49.2711 307.787 47.6051 307.787 45.7857C307.787 43.9868 308.073 42.3412 308.646 40.849C309.239 39.3362 310.067 38.0484 311.13 36.9854C312.213 35.9224 313.511 35.0945 315.024 34.5017C316.537 33.9088 318.223 33.6124 320.083 33.6124C322.495 33.6124 324.611 34.1337 326.431 35.1763C328.25 36.2188 329.691 37.8337 330.754 40.0211L325.051 42.3821C324.519 41.1147 323.824 40.205 322.966 39.6531C322.127 39.1012 321.167 38.8252 320.083 38.8252C319.184 38.8252 318.366 38.9989 317.63 39.3465C316.894 39.6735 316.261 40.1539 315.729 40.7876C315.218 41.4009 314.809 42.147 314.503 43.0261C314.216 43.9051 314.073 44.8863 314.073 45.9697C314.073 46.951 314.196 47.8606 314.441 48.6988C314.707 49.5369 315.095 50.2626 315.606 50.8759C316.117 51.4891 316.751 51.9695 317.508 52.317C318.264 52.6441 319.143 52.8076 320.145 52.8076C320.737 52.8076 321.31 52.7463 321.862 52.6237C322.414 52.4806 322.904 52.2659 323.334 51.9797C323.783 51.6731 324.151 51.2847 324.437 50.8145C324.724 50.3444 324.918 49.772 325.02 49.0974H320.083V44.4366ZM341.053 45.8164C341.053 46.7363 341.227 47.5847 341.575 48.3615C341.922 49.1383 342.392 49.8129 342.985 50.3852C343.578 50.9576 344.263 51.4073 345.04 51.7344C345.837 52.0411 346.675 52.1944 347.554 52.1944C348.433 52.1944 349.261 52.0411 350.038 51.7344C350.835 51.4073 351.53 50.9576 352.123 50.3852C352.736 49.8129 353.216 49.1383 353.564 48.3615C353.911 47.5847 354.085 46.7363 354.085 45.8164C354.085 44.8965 353.911 44.0482 353.564 43.2714C353.216 42.4946 352.736 41.82 352.123 41.2476C351.53 40.6752 350.835 40.2357 350.038 39.9291C349.261 39.602 348.433 39.4385 347.554 39.4385C346.675 39.4385 345.837 39.602 345.04 39.9291C344.263 40.2357 343.578 40.6752 342.985 41.2476C342.392 41.82 341.922 42.4946 341.575 43.2714C341.227 44.0482 341.053 44.8965 341.053 45.8164ZM334.767 45.8164C334.767 44.0993 335.084 42.5048 335.718 41.0329C336.352 39.5407 337.231 38.2426 338.355 37.1387C339.479 36.0348 340.818 35.1763 342.372 34.563C343.946 33.9293 345.673 33.6124 347.554 33.6124C349.414 33.6124 351.131 33.9293 352.705 34.563C354.279 35.1763 355.629 36.0348 356.753 37.1387C357.898 38.2426 358.787 39.5407 359.421 41.0329C360.054 42.5048 360.371 44.0993 360.371 45.8164C360.371 47.5336 360.054 49.1383 359.421 50.6305C358.787 52.1024 357.898 53.3902 356.753 54.4941C355.629 55.598 354.279 56.4668 352.705 57.1005C351.131 57.7138 349.414 58.0204 347.554 58.0204C345.673 58.0204 343.946 57.7138 342.372 57.1005C340.818 56.4668 339.479 55.598 338.355 54.4941C337.231 53.3902 336.352 52.1024 335.718 50.6305C335.084 49.1383 334.767 47.5336 334.767 45.8164Z" fill="#01A0C7"/>
<g clip-path="url(#clip0_418_155)">
<path fill-rule="evenodd" clip-rule="evenodd" d="M190.038 2.71892L192.757 1.96435C192.757 1.96435 191.548 1.0584 193.663 1.36116C195.777 1.66276 197.438 1.51254 197.74 1.36116C198.042 1.20978 197.74 0.606593 198.647 0.606593C199.553 0.606593 199.25 1.05957 200.157 1.05957C201.063 1.05957 201.667 0.456377 202.12 0.304997C202.573 0.153618 202.724 -0.298193 203.329 0.304997C203.932 0.908188 204.084 1.36116 204.99 1.36116C205.897 1.36116 206.198 2.56871 206.198 3.1719C206.198 3.77509 207.407 4.37944 207.558 4.98263C207.71 5.58582 207.407 6.49177 208.767 6.19018C210.125 5.88858 211.334 6.19018 211.334 6.49177C211.334 6.79337 211.787 8.75548 211.635 9.35868C211.484 9.96187 210.88 11.0192 210.427 11.1694C209.974 11.3208 208.917 11.018 208.765 11.471C208.614 11.924 208.614 13.4331 208.765 13.8861C208.917 14.3391 209.067 15.0936 209.974 15.3952C210.88 15.6968 210.88 15.9984 211.332 16.4514C211.786 16.9044 211.786 17.206 212.541 17.206C213.296 17.206 214.504 17.0546 214.654 17.5076C214.806 17.9605 215.409 17.9605 216.316 18.4135C217.222 18.8665 216.919 20.5258 217.675 20.8286C218.43 21.1302 219.336 20.527 219.638 20.6772C219.94 20.8286 220.544 22.3377 221.45 22.6393C222.356 22.9409 223.413 23.3939 223.413 23.3939C223.413 23.3939 223.565 25.2046 223.565 25.5062C223.565 25.8078 222.055 26.1094 222.055 26.864C222.055 27.6186 222.055 29.1277 222.658 29.5807C223.262 30.0337 223.565 30.0337 224.319 30.1839C225.074 30.3353 225.98 31.5416 225.98 31.5416C225.98 31.5416 225.377 32.7492 225.225 33.654C225.074 34.5599 224.319 35.0117 224.319 35.3145C224.319 35.6172 225.527 35.9177 225.677 36.522C225.829 37.1252 226.281 37.8798 226.432 38.4841C226.584 39.0873 224.469 40.8992 224.469 40.8992L222.505 39.5415C222.505 39.5415 221.147 39.9945 220.089 40.4474C219.032 40.9004 217.522 40.9004 217.069 41.3534C216.615 41.8064 215.407 43.0139 214.2 42.8625C212.992 42.7111 211.783 43.4657 210.576 43.0139C209.368 42.5609 208.311 41.0518 208.311 41.0518C208.311 41.0518 206.801 40.5988 206.348 40.2972C205.894 39.9956 205.441 39.2411 204.686 38.4865C203.931 37.7319 201.968 37.7319 201.666 37.7319C201.364 37.7319 200.307 36.826 200.005 36.6757C199.704 36.5244 195.777 36.5244 195.777 36.5244C195.777 36.5244 195.777 36.9773 194.87 37.2789C193.964 37.5805 192.907 36.826 192.303 36.6757C191.7 36.5244 191.247 36.6757 190.945 36.9773C190.643 37.2789 189.736 38.7881 188.831 39.2411C187.926 39.694 186.717 39.694 186.717 39.3924C186.717 39.0908 187.321 38.4865 187.472 37.5817C187.624 36.6757 186.869 36.6757 186.264 35.1666C185.661 33.6575 186.264 33.2045 186.566 32.7515C186.868 32.2985 186.566 31.8456 186.414 30.6392C186.263 29.4316 185.659 28.5269 186.263 27.6209C186.867 26.715 187.32 25.6588 187.773 24.9042C188.226 24.1496 187.471 24.301 188.226 23.3951C188.981 22.4891 190.34 21.8859 190.491 21.433C190.643 20.98 189.736 20.2254 189.736 19.7724C189.736 19.3195 190.34 18.4147 190.643 18.2633C190.945 18.1119 191.549 18.1119 192.153 17.8103C192.757 17.5087 193.965 17.5087 194.116 16.4526C194.268 15.3964 194.418 15.0948 194.418 14.792C194.418 14.4905 193.815 14.3391 193.21 13.2829C192.606 12.2267 192.908 11.0192 192.908 10.5662C192.908 10.1132 191.7 9.51006 191.7 8.9057C191.7 8.30251 191.247 7.69816 191.247 7.24518C191.247 6.79221 191.095 5.88742 191.095 5.28306C191.095 4.67987 190.189 4.52849 189.887 4.07552C189.585 3.62371 190.038 2.71892 190.038 2.71892Z" fill="#01A0C7"/>
<path fill-rule="evenodd" clip-rule="evenodd" d="M200.156 55.3864C201.212 54.6319 201.062 54.7832 201.816 54.1789C202.571 53.5757 203.478 53.1227 203.779 52.2168C204.081 51.3108 204.081 50.2547 204.836 50.1044C205.591 49.9531 205.893 49.3499 206.045 48.7467C206.196 48.1435 206.346 48.5953 206.649 47.8407C206.951 47.0862 206.801 47.6894 207.706 46.9348C208.613 46.1802 209.368 44.0679 209.368 44.0679L210.425 43.9165C210.425 43.9165 211.331 44.9727 211.028 45.4256C210.726 45.8786 211.028 47.2364 210.425 47.2364C209.821 47.2364 209.821 48.2925 209.821 48.2925C209.821 48.2925 208.613 49.1985 208.311 49.8017C208.009 50.4049 207.707 50.8579 207.254 51.0092C206.801 51.1606 206.801 51.4622 206.801 52.2168C206.801 52.9713 206.649 53.4243 207.254 54.0275C207.859 54.6307 207.406 55.3853 208.311 55.8382C209.217 56.2912 209.066 56.7442 209.217 57.0458C209.264 57.1378 209.283 57.1739 209.272 57.1879C209.248 57.2193 209.079 57.1378 208.765 57.3486C208.312 57.6501 207.557 57.3486 207.104 57.9517C206.65 58.5549 206.802 58.5549 206.047 59.0079C205.292 59.4609 204.839 59.7625 204.234 59.7625C203.63 59.7625 202.422 60.6684 201.969 59.7625C201.515 58.8565 201.365 58.7063 200.76 58.4047C200.157 58.1031 200.005 57.4988 199.402 57.3486C198.796 57.1972 199.099 56.141 200.156 55.3864Z" fill="#01A0C7"/>
</g>
<path d="M34.818 137.008H47.376V145.03H34.818V137.008ZM61.068 145.03H52.458V137.008H59.01V132.346H34.818V128.902C42.252 128.23 50.442 127.096 56.7 125.374L52.5 121.342C47.88 122.728 40.572 123.904 33.642 124.618L29.694 123.778V145.03H23.058V149.734H61.068V145.03ZM34.944 149.776C32.256 152.128 27.132 155.194 22.932 156.874C24.066 157.924 25.662 159.604 26.502 160.738C30.744 158.932 35.994 155.824 39.48 153.094L34.944 149.776ZM44.604 153.22C48.678 155.362 54.348 158.68 56.994 160.738L61.152 156.874C58.212 154.816 52.374 151.75 48.51 149.86L44.604 153.22ZM79.59 147.046V144.988H84.966V147.046H79.59ZM79.59 140.074H84.966V142.132H79.59V140.074ZM95.424 140.074V142.132H89.754V140.074H95.424ZM95.424 147.046H89.754V144.988H95.424V147.046ZM103.362 152.128H89.754V150.154H100.002V137.008H89.754V135.118H101.934V131.38H89.754V129.07H103.026V124.702H87.906V121.468H82.698V124.702H67.662V138.268C67.662 144.232 67.41 152.254 63.966 157.798C65.1 158.302 67.116 159.73 67.956 160.612C71.82 154.606 72.45 144.946 72.45 138.268V129.07H84.966V131.38H74.004V135.118H84.966V137.008H75.222V150.154H84.966V152.128H72.282V156.16H84.966V160.696H89.754V156.16H103.362V152.128ZM135.534 128.398H121.674V126.298H135.534V128.398ZM135.534 133.774H121.674V131.59H135.534V133.774ZM135.534 139.066H121.674V136.924H135.534V139.066ZM140.448 122.896H116.97V142.468H140.448V122.896ZM115.626 150.238C113.778 152.548 110.04 155.32 106.68 157C107.814 157.798 109.662 159.31 110.754 160.36C114.198 158.428 118.146 155.236 120.834 152.17L115.626 150.238ZM144.9 149.062V144.652H114.072V125.416H109.032V149.944H114.072V149.062H123.438V160.654H128.688V149.062H144.9ZM131.334 152.59C134.526 154.9 138.81 158.344 140.784 160.402L145.404 157.294C143.178 155.152 138.726 152.002 135.618 149.902L131.334 152.59ZM161.742 129.658C161.406 131.086 160.734 133.018 160.188 134.278L162.96 134.866H154.728L156.828 134.278C156.66 133.018 156.114 131.086 155.4 129.658H161.742ZM161.196 146.416H168.126V142.216H161.196V138.982H168.504V134.866H164.262C164.85 133.606 165.522 131.926 166.278 130.12L163.842 129.658H168.168V125.584H161.196V121.762H156.366V125.584H149.31V129.658H154.014L151.452 130.246C152.04 131.674 152.544 133.48 152.712 134.866H148.848V138.982H156.366V142.216H148.974V146.416H155.358C153.426 149.566 150.528 152.716 147.798 154.522C148.848 155.32 150.276 156.958 151.032 158.05C152.838 156.58 154.728 154.48 156.366 152.128V160.57H161.196V151.624C162.414 152.8 163.59 154.06 164.262 154.9L167.16 151.33C166.194 150.574 162.708 147.802 161.196 146.752V146.416ZM187.572 135.244H174.468V129.364C178.878 128.44 183.666 127.138 187.362 125.5L183.372 121.846C180.81 123.232 176.652 124.576 172.662 125.542L169.764 124.744V139.276C169.764 145.072 169.26 152.212 164.43 157.336C165.564 157.924 167.37 159.646 168 160.738C173.544 154.984 174.426 146.122 174.468 139.864H178.752V160.402H183.582V139.864H187.572V135.244ZM227.052 121.888H222.306V139.738C222.306 140.284 222.096 140.41 221.508 140.452C220.878 140.494 218.862 140.494 216.972 140.41C217.56 141.628 218.232 143.518 218.442 144.82C221.382 144.82 223.524 144.694 225.036 144.022C226.632 143.308 227.052 142.132 227.052 139.822V121.888ZM219.24 123.82H214.662V138.016H219.24V123.82ZM200.76 131.674V127.264H204.288V131.674H200.76ZM212.562 154.69V151.33H224.7V146.794H212.562V143.434H208.95V136.084H212.898V131.674H208.95V127.264H211.932V122.896H192.864V127.264H196.182V131.674H191.436V136.084H195.678C195.048 138.184 193.662 140.2 190.554 141.796C191.436 142.468 193.2 144.358 193.83 145.282C197.988 142.972 199.752 139.528 200.424 136.084H204.288V144.148H207.438V146.794H195.258V151.33H207.438V154.69H191.016V159.31H228.858V154.69H212.562ZM237.594 127.18V133.018C238.77 132.934 241.038 132.85 242.802 132.85H261.66V150.238H242.298C240.408 150.238 238.518 150.112 237.048 149.986V155.992C238.434 155.866 240.828 155.74 242.466 155.74H261.618C261.618 156.538 261.618 157.252 261.576 157.924H267.666C267.582 156.664 267.498 154.438 267.498 152.968V131.212C267.498 129.994 267.582 128.314 267.624 127.348C266.91 127.39 265.146 127.432 263.928 127.432H242.76C241.332 127.432 239.148 127.348 237.594 127.18ZM278.292 127.222C278.376 128.398 278.376 130.12 278.376 131.296V151.834C278.376 153.85 278.25 157.504 278.25 157.714H284.046C284.046 157.588 284.046 156.622 284.004 155.446H304.248C304.248 156.664 304.206 157.63 304.206 157.714H310.002C310.002 157.546 309.918 153.514 309.918 151.876V131.296C309.918 130.036 309.918 128.482 310.002 127.222C308.49 127.306 306.894 127.306 305.844 127.306H282.744C281.61 127.306 280.014 127.264 278.292 127.222ZM284.004 132.64H304.29V150.07H284.004V132.64ZM334.236 128.692V133.312H323.316C321.636 133.312 319.914 133.144 318.654 133.018V138.814C319.956 138.73 321.636 138.604 323.484 138.604H334.194C333.858 145.702 331.044 151.75 322.812 155.488L328.02 159.352C337.092 153.934 339.738 147.046 339.99 138.604H349.44C351.12 138.604 353.178 138.73 354.06 138.772V133.06C353.178 133.144 351.414 133.312 349.482 133.312H340.032V128.734C340.032 127.39 340.116 125.08 340.368 123.778H333.69C334.068 125.08 334.236 127.264 334.236 128.692ZM381.024 122.686H374.556C374.85 124.492 374.892 125.374 374.892 126.55V129.784H365.904C364.308 129.784 363.048 129.742 361.62 129.574C361.788 130.582 361.83 132.262 361.83 133.186V140.452C361.83 141.586 361.746 142.93 361.62 143.98H367.416C367.332 143.14 367.29 141.838 367.29 140.872V134.74H388.122C387.618 138.478 386.526 142.468 384.384 145.534C382.032 148.936 378.336 151.414 374.85 152.716C373.128 153.388 370.818 154.018 368.928 154.354L373.296 159.394C380.772 157.462 387.072 153.01 390.432 146.794C392.49 142.972 393.624 138.94 394.338 134.908C394.506 134.068 394.842 132.472 395.178 131.548L391.524 129.322C390.81 129.574 389.802 129.784 388.038 129.784H380.73V126.55C380.73 125.374 380.814 124.492 381.024 122.686ZM401.604 140.662L404.25 145.954C409.416 144.442 414.75 142.174 419.076 139.906V153.346C419.076 155.194 418.95 157.84 418.782 158.848H425.418C425.124 157.798 425.04 155.194 425.04 153.346V136.378C429.114 133.69 433.146 130.414 436.338 127.264L431.802 122.938C429.072 126.256 424.284 130.456 419.958 133.144C415.296 136 409.122 138.73 401.604 140.662ZM462.126 156.076L465.654 158.974C466.032 158.638 466.536 158.218 467.46 157.714C472.164 155.32 478.212 150.784 481.698 146.248L478.464 141.628C475.65 145.702 471.492 149.02 468.09 150.49V128.524C468.09 126.634 468.342 124.996 468.384 124.87H462.126C462.168 124.996 462.462 126.592 462.462 128.482V152.968C462.462 154.102 462.294 155.278 462.126 156.076ZM442.68 155.446L447.804 158.848C451.374 155.656 454.02 151.54 455.28 146.794C456.414 142.552 456.54 133.69 456.54 128.734C456.54 126.97 456.792 125.122 456.834 124.912H450.66C450.912 125.962 451.038 127.096 451.038 128.776C451.038 133.858 450.996 141.796 449.82 145.408C448.644 148.978 446.376 152.842 442.68 155.446ZM518.028 128.524L514.584 125.962C513.744 126.256 512.064 126.508 510.258 126.508H495.432C494.172 126.508 491.61 126.382 490.476 126.214V132.178C491.358 132.136 493.668 131.884 495.432 131.884H509.67C508.746 134.866 506.184 139.024 503.412 142.174C499.464 146.584 492.954 151.708 486.192 154.228L490.518 158.764C496.272 156.034 501.858 151.666 506.31 146.962C510.258 150.784 514.164 155.068 516.894 158.848L521.682 154.69C519.204 151.666 514.122 146.29 509.964 142.678C512.778 138.898 515.13 134.404 516.558 131.128C516.936 130.288 517.692 128.986 518.028 128.524ZM12.3382 224.254C12.3382 222.826 13.9762 221.65 16.9582 221.65C18.1342 221.65 19.2682 221.776 20.4022 221.944C20.4442 222.7 20.4442 223.288 20.4442 223.75C20.4442 226.186 18.9742 226.816 16.7482 226.816C13.8502 226.816 12.3382 225.85 12.3382 224.254ZM25.4842 195.022H19.8142C19.9822 195.82 20.0662 197.122 20.0662 197.92C20.0662 198.424 20.0662 199.096 20.0662 199.894C19.5202 199.894 18.9742 199.894 18.4282 199.894C15.8662 199.894 11.0782 199.474 8.05416 198.97L8.18016 203.758C10.9522 204.136 15.8242 204.514 18.4702 204.514C18.9742 204.514 19.4782 204.514 20.0242 204.514C19.9822 205.942 19.9822 207.454 19.9822 208.84C19.3102 208.84 18.6382 208.84 17.9662 208.84C15.7402 208.84 10.5742 208.546 7.84416 208.042L7.88616 212.998C10.6582 213.334 15.4462 213.544 17.8822 213.544C18.6382 213.544 19.3522 213.544 20.0662 213.544C20.1082 214.804 20.1502 216.148 20.2342 217.45C19.3942 217.366 18.5122 217.324 17.6302 217.324C11.1622 217.324 7.25616 220.306 7.25616 224.548C7.25616 229 10.7842 231.562 17.5042 231.562C23.0482 231.562 25.7782 228.79 25.7782 225.22C25.7782 224.758 25.7782 224.254 25.7362 223.666C29.0962 225.178 31.9522 227.404 34.2202 229.504L37.2442 224.8C34.8082 222.784 30.7762 219.97 25.4842 218.458C25.3582 216.778 25.2742 215.056 25.1902 213.46C29.2222 213.334 32.4982 213.04 36.2782 212.62L36.3202 207.664C32.9182 208.126 29.3482 208.462 25.1062 208.672C25.1062 207.37 25.1062 205.816 25.1062 204.346C29.1802 204.136 33.0022 203.758 35.7742 203.422L35.8162 198.592C32.1202 199.222 28.6342 199.558 25.1902 199.726C25.1902 199.054 25.1902 198.424 25.2322 198.004C25.2742 196.912 25.3582 195.862 25.4842 195.022ZM56.2702 195.526L51.0202 197.668C52.9102 202.12 54.9262 206.614 56.8582 210.184C52.8262 213.166 49.8862 216.652 49.8862 221.272C49.8862 228.496 56.2282 230.806 64.5862 230.806C70.0462 230.806 74.4982 230.386 78.0682 229.756L78.1522 223.708C74.4142 224.632 68.7442 225.262 64.4182 225.262C58.5802 225.262 55.6822 223.666 55.6822 220.642C55.6822 217.702 58.0342 215.308 61.5202 212.998C65.3422 210.52 70.6342 208.084 73.2382 206.782C74.7922 205.984 76.1362 205.27 77.3962 204.514L74.4982 199.642C73.4062 200.566 72.1882 201.28 70.5922 202.204C68.6182 203.338 64.9642 205.144 61.5202 207.16C59.8402 203.926 57.8662 199.894 56.2702 195.526ZM113.768 196.072L107.972 195.526C107.972 196.492 107.846 198.298 107.636 199.516C107.552 200.146 107.426 200.818 107.258 201.532C104.024 201.658 100.916 202.456 97.7242 204.052C97.4302 203.17 97.1782 202.288 96.9682 201.49C96.6322 200.23 96.2962 198.844 96.0442 197.458L90.5422 199.18C91.2982 200.692 91.7602 202.036 92.2222 203.548C92.6002 204.682 92.9362 205.816 93.3562 206.95C89.5342 210.31 87.1402 215.434 87.1402 220.222C87.1402 225.64 90.3322 228.58 93.8182 228.58C96.9262 228.58 99.2782 227.194 102.092 224.128C102.512 224.674 103.016 225.22 103.52 225.766L107.762 222.406C106.964 221.65 106.208 220.768 105.452 219.886C107.846 216.232 109.694 211.402 111.164 206.53C115.364 207.664 117.968 211.15 117.968 215.812C117.968 221.062 114.314 225.808 105.116 226.564L108.308 231.436C117.044 230.092 123.386 225.01 123.386 216.106C123.386 208.756 119.018 203.422 112.424 201.91C112.55 201.364 112.676 200.86 112.802 200.314C113.054 199.264 113.432 197.206 113.768 196.072ZM92.0542 219.802C92.0542 217.198 93.1882 214.216 95.1622 211.906C96.3802 215.056 97.7242 217.912 99.0682 219.97C97.5142 221.86 95.9602 223.162 94.4482 223.162C92.9362 223.162 92.0542 221.86 92.0542 219.802ZM99.2362 208.63C101.21 207.454 103.436 206.572 105.998 206.278C105.032 209.386 103.772 212.662 102.26 215.35C101.252 213.67 100.202 211.234 99.2362 208.63ZM157.826 210.436V209.05H160.934C163.16 209.05 164.63 209.092 165.554 209.176V203.59C164.42 203.8 163.16 203.884 160.934 203.884H157.826V199.474C157.826 197.794 157.994 196.408 158.12 195.568H152.114C152.24 196.408 152.366 197.794 152.366 199.474V203.884H142.412V199.726C142.412 198.088 142.538 196.744 142.664 195.946H136.7C136.826 197.206 136.952 198.508 136.952 199.726V203.884H133.382C131.282 203.884 129.56 203.632 128.846 203.506V209.218C129.77 209.134 131.282 209.05 133.382 209.05H136.952V214.762C136.952 216.652 136.826 218.332 136.7 219.172H142.58C142.538 218.332 142.412 216.61 142.412 214.762V209.05H152.366V210.646C152.366 220.978 148.796 224.59 140.69 227.404L145.184 231.646C155.306 227.194 157.826 220.852 157.826 210.436ZM171.014 212.662L173.66 217.954C178.826 216.442 184.16 214.174 188.486 211.906V225.346C188.486 227.194 188.36 229.84 188.192 230.848H194.828C194.534 229.798 194.45 227.194 194.45 225.346V208.378C198.524 205.69 202.556 202.414 205.748 199.264L201.212 194.938C198.482 198.256 193.694 202.456 189.368 205.144C184.706 208 178.532 210.73 171.014 212.662ZM223.598 224.968C223.598 226.648 223.43 229.168 223.178 230.848H229.73C229.562 229.126 229.352 226.186 229.352 224.968V213.082C233.888 214.636 240.188 217.072 244.514 219.34L246.908 213.544C243.044 211.654 234.98 208.672 229.352 207.034V200.818C229.352 199.096 229.562 197.248 229.73 195.778H223.178C223.472 197.248 223.598 199.348 223.598 200.818V224.968ZM255.392 217.996C255.056 221.524 254.384 225.262 253.166 227.74C254.258 228.118 256.106 229 256.988 229.546C258.206 226.858 259.088 222.658 259.508 218.71L255.392 217.996ZM264.506 218.752C265.472 221.23 266.564 224.464 266.942 226.564L270.638 225.22C270.176 223.12 269.084 220.054 268.034 217.66L264.506 218.752ZM271.352 226.354C276.812 227.908 283.49 230.722 287.144 233.032L290.042 229.126C286.178 227.026 279.668 224.296 274.25 222.826L271.352 226.354ZM275.888 218.878C278.87 220.054 282.524 222.196 284.498 223.792L287.396 220.306C285.338 218.794 281.726 216.904 278.702 215.728L275.888 218.878ZM284.666 201.7C283.658 203.38 282.44 204.976 281.012 206.446C279.584 204.934 278.366 203.338 277.358 201.7H284.666ZM288.068 197.248L287.312 197.416H279.836C280.424 196.366 280.928 195.274 281.39 194.224L276.518 193.426C274.964 197.374 271.982 201.994 267.404 205.48C268.496 206.11 270.092 207.664 270.848 208.714C272.234 207.58 273.452 206.362 274.586 205.102C275.552 206.572 276.602 208 277.778 209.302C275.426 211.108 272.78 212.62 270.008 213.754C269.294 211.612 268.118 209.092 266.942 206.992L263.624 208.378C264.128 209.302 264.632 210.352 265.094 211.402L261.062 211.57C263.708 208.168 266.606 203.926 268.916 200.272L264.842 198.382C263.876 200.44 262.532 202.834 261.104 205.186C260.684 204.682 260.222 204.094 259.676 203.506C261.188 201.154 262.868 197.92 264.38 195.064L260.054 193.468C259.34 195.694 258.164 198.466 256.988 200.776C256.652 200.482 256.316 200.188 256.022 199.936L253.628 203.338C255.35 205.018 257.366 207.244 258.584 209.05C257.912 210.016 257.24 210.94 256.61 211.738L253.586 211.864L254.006 216.19L260.096 215.812V232.696H264.422V215.518L266.564 215.35C266.774 216.106 266.942 216.82 267.068 217.408L270.134 216.022C270.764 216.82 271.31 217.66 271.604 218.29C274.88 216.904 278.114 215.014 281.054 212.578C283.91 215.098 287.102 217.114 290.588 218.5C291.26 217.282 292.688 215.434 293.738 214.426C290.378 213.334 287.186 211.612 284.414 209.47C287.228 206.488 289.58 203.002 291.176 198.97L288.068 197.248ZM328.598 196.03L327.38 196.366H298.736V201.28H323.096C320.996 203.548 318.392 205.9 315.83 207.706H313.016V226.732C313.016 227.446 312.722 227.656 311.798 227.656C310.832 227.698 307.388 227.698 304.448 227.53C305.204 228.916 306.128 231.142 306.422 232.654C310.454 232.654 313.436 232.57 315.536 231.814C317.594 231.058 318.308 229.714 318.308 226.816V211.906C323.39 208.714 328.808 203.464 332.504 198.928L328.598 196.03ZM375.344 214.216C375.344 205.06 368.792 197.836 358.376 197.836C347.498 197.836 339.098 206.11 339.098 215.812C339.098 222.91 342.962 228.034 347.624 228.034C352.202 228.034 355.814 222.826 358.334 214.342C359.552 210.394 360.266 206.53 360.854 202.96C366.524 203.926 369.674 208.252 369.674 214.048C369.674 220.18 365.474 224.044 360.098 225.304C358.964 225.556 357.788 225.808 356.192 225.976L359.342 230.974C369.926 229.336 375.344 223.078 375.344 214.216ZM344.474 215.266C344.474 210.646 348.212 204.514 355.142 203.086C354.68 206.572 353.882 210.142 352.916 213.25C351.194 218.92 349.556 221.566 347.792 221.566C346.154 221.566 344.474 219.508 344.474 215.266ZM396.722 194.896H390.926C391.052 195.652 391.22 197.71 391.22 198.592C391.22 199.306 391.22 200.524 391.178 201.994C390.338 202.036 389.498 202.078 388.742 202.078C387.23 202.078 385.424 202.036 382.946 201.742L383.03 206.824C384.458 206.992 386.096 207.034 388.91 207.034C389.582 207.034 390.338 206.992 391.136 206.95C391.136 208.126 391.136 209.302 391.136 210.478C391.136 211.444 391.136 212.452 391.178 213.46C386.012 215.686 381.812 219.508 381.812 223.162C381.812 227.614 387.566 231.142 391.64 231.142C394.412 231.142 396.26 229.756 396.26 224.548C396.26 223.12 396.176 219.844 396.092 216.526C398.654 215.77 401.384 215.35 403.988 215.35C407.642 215.35 410.162 217.03 410.162 219.886C410.162 222.952 407.474 224.632 404.072 225.262C402.602 225.514 400.796 225.556 398.906 225.556L400.838 230.974C402.56 230.848 404.408 230.722 406.34 230.302C413.018 228.622 415.622 224.884 415.622 219.928C415.622 214.132 410.54 210.772 404.072 210.772C401.762 210.772 398.864 211.15 396.008 211.864C396.008 211.318 396.008 210.814 396.008 210.31C396.008 209.092 396.008 207.79 396.05 206.53C398.78 206.194 401.678 205.774 404.072 205.228L403.946 200.02C401.762 200.65 398.99 201.196 396.218 201.532C396.26 200.482 396.302 199.474 396.344 198.55C396.428 197.458 396.596 195.652 396.722 194.896ZM408.692 199.432L406.382 203.506C408.986 204.766 414.488 207.916 416.504 209.638L419.024 205.354C416.798 203.758 411.926 200.986 408.692 199.432ZM386.978 222.952C386.978 221.482 388.7 219.76 391.262 218.374C391.346 220.642 391.388 222.574 391.388 223.624C391.388 225.052 390.8 225.388 390.044 225.388C388.952 225.388 386.978 224.254 386.978 222.952ZM441.788 214.72V210.016H434.9V209.008V203.338H440.822V198.718H429.734C430.154 197.29 430.49 195.862 430.784 194.392L425.996 193.426C425.156 198.214 423.56 203.044 421.292 206.068C422.426 206.698 424.4 208.126 425.324 208.966C426.374 207.412 427.34 205.48 428.18 203.338H429.86V208.966V210.016H422.09V214.72H429.524C428.852 219.592 426.92 224.842 421.46 228.748C422.51 229.504 424.358 231.478 425.03 232.528C429.062 229.588 431.54 225.64 432.968 221.524C435.026 224.086 437.42 227.236 438.806 229.42L442.166 225.22C440.99 223.834 436.454 218.584 434.27 216.442C434.396 215.896 434.48 215.308 434.564 214.72H441.788ZM447.752 223.708V201.742H453.842V223.708H447.752ZM442.922 197.038V231.436H447.752V228.412H453.842V230.806H458.924V197.038H442.922ZM476.438 195.19L475.094 200.23C478.37 201.07 487.736 203.044 491.978 203.59L493.238 198.466C489.584 198.046 480.428 196.45 476.438 195.19ZM476.69 203.632L471.062 202.834C470.768 208.042 469.802 216.274 468.962 220.39L473.792 221.608C474.17 220.768 474.59 220.096 475.346 219.172C477.992 215.98 482.276 214.216 487.022 214.216C490.676 214.216 493.28 216.232 493.28 218.962C493.28 224.296 486.602 227.362 474.002 225.64L475.598 231.142C493.07 232.612 499.118 226.732 499.118 219.088C499.118 214.006 494.834 209.47 487.484 209.47C483.074 209.47 478.916 210.688 475.094 213.46C475.388 211.066 476.144 205.942 476.69 203.632ZM535.72 196.03H530.092C530.218 196.87 530.386 198.844 530.386 199.894V204.64C526.564 204.976 522.49 205.354 518.92 205.69C518.92 204.052 518.962 202.624 518.962 201.658C518.962 199.894 519.004 198.718 519.214 197.29H513.292C513.502 198.802 513.628 200.23 513.628 201.952C513.628 202.666 513.628 204.22 513.628 206.194C512.284 206.32 511.192 206.404 510.436 206.488C508.294 206.698 506.362 206.782 505.144 206.782L505.732 212.158C506.824 211.99 509.428 211.57 510.772 211.402C511.486 211.318 512.452 211.234 513.586 211.108C513.586 215.014 513.586 219.088 513.628 220.894C513.838 228.16 515.14 230.428 526.018 230.428C530.008 230.428 535.174 230.092 537.988 229.756L538.198 224.044C535.048 224.59 529.756 225.094 525.64 225.094C519.34 225.094 518.962 224.17 518.878 220.054C518.794 218.248 518.836 214.384 518.878 210.52C522.448 210.142 526.564 209.764 530.302 209.47C530.26 211.486 530.134 213.418 529.966 214.552C529.882 215.35 529.504 215.518 528.664 215.518C527.824 215.518 526.102 215.266 524.8 214.972L524.674 219.634C526.144 219.844 529.504 220.264 531.016 220.264C533.158 220.264 534.208 219.718 534.67 217.492C535.006 215.728 535.174 212.284 535.3 209.092C536.518 209.008 537.61 208.966 538.534 208.924C539.626 208.882 541.852 208.84 542.566 208.882V203.716C541.348 203.842 539.71 203.926 538.534 204.01C537.568 204.052 536.518 204.136 535.384 204.22C535.426 202.834 535.426 201.322 535.468 199.684C535.51 198.55 535.636 196.702 535.72 196.03Z" fill="black"/>
<defs>
<clipPath id="clip0_418_155">
<rect width="40.5813" height="60.2692" fill="white" transform="translate(186)"/>
</clipPath>
</defs>
</svg>
